<svg xmlns="http://www.w3.org/2000/svg" width="480" height="210" viewBox="0 0 480 210">
  <rect width="480" height="210" fill="#0d1117" rx="12" stroke="#30363d" stroke-width="0.5"/>

  <text x="24" y="32" font-family="-apple-system, BlinkMacSystemFont, 'Segoe UI', sans-serif" font-size="11" fill="#6e7681" letter-spacing="0.3">DanielDeshmukh's GitHub stats</text>

  <line x1="24" y1="42" x2="456" y2="42" stroke="#21262d" stroke-width="0.5"/>

  <text x="56" y="78" font-family="-apple-system, BlinkMacSystemFont, 'Segoe UI', sans-serif" font-size="26" font-weight="500" fill="#e6edf3" text-anchor="middle">18</text>
  <text x="56" y="96" font-family="-apple-system, BlinkMacSystemFont, 'Segoe UI', sans-serif" font-size="10" fill="#6e7681" text-anchor="middle" letter-spacing="0.3">Stars</text>

  <line x1="128" y1="58" x2="128" y2="100" stroke="#21262d" stroke-width="0.5"/>

  <text x="240" y="78" font-family="-apple-system, BlinkMacSystemFont, 'Segoe UI', sans-serif" font-size="26" font-weight="500" fill="#e6edf3" text-anchor="middle">1.1k</text>
  <text x="240" y="96" font-family="-apple-system, BlinkMacSystemFont, 'Segoe UI', sans-serif" font-size="10" fill="#6e7681" text-anchor="middle" letter-spacing="0.3">Commits (last year)</text>

  <line x1="352" y1="58" x2="352" y2="100" stroke="#21262d" stroke-width="0.5"/>

  <text x="424" y="78" font-family="-apple-system, BlinkMacSystemFont, 'Segoe UI', sans-serif" font-size="26" font-weight="500" fill="#e6edf3" text-anchor="middle">51</text>
  <text x="424" y="96" font-family="-apple-system, BlinkMacSystemFont, 'Segoe UI', sans-serif" font-size="10" fill="#6e7681" text-anchor="middle" letter-spacing="0.3">Pull requests</text>

  <line x1="24" y1="114" x2="456" y2="114" stroke="#21262d" stroke-width="0.5"/>

  <text x="24" y="132" font-family="-apple-system, BlinkMacSystemFont, 'Segoe UI', sans-serif" font-size="10" fill="#6e7681" letter-spacing="0.5">TOP LANGUAGES</text>

  <rect x="24" y="143" width="182" height="6" rx="3" fill="#3572A5"/>
  <rect x="208" y="143" width="170" height="6" rx="3" fill="#f1e05a"/>
  <rect x="380" y="143" width="43" height="6" rx="3" fill="#3178c6"/>
  <rect x="425" y="143" width="11" height="6" rx="3" fill="#663399"/>
  <rect x="438" y="143" width="7" height="6" rx="3" fill="#e34c26"/>
  <rect x="447" y="143" width="9" height="6" rx="3" fill="#30363d"/>

  <circle cx="28" cy="170" r="4" fill="#3572A5"/>
  <text x="38" y="174" font-family="-apple-system, BlinkMacSystemFont, 'Segoe UI', sans-serif" font-size="11" fill="#8b949e">Python</text>

  <circle cx="102" cy="170" r="4" fill="#f1e05a"/>
  <text x="112" y="174" font-family="-apple-system, BlinkMacSystemFont, 'Segoe UI', sans-serif" font-size="11" fill="#8b949e">JavaScript</text>

  <circle cx="207" cy="170" r="4" fill="#3178c6"/>
  <text x="217" y="174" font-family="-apple-system, BlinkMacSystemFont, 'Segoe UI', sans-serif" font-size="11" fill="#8b949e">TypeScript</text>

  <circle cx="304" cy="170" r="4" fill="#663399"/>
  <text x="314" y="174" font-family="-apple-system, BlinkMacSystemFont, 'Segoe UI', sans-serif" font-size="11" fill="#8b949e">CSS</text>

  <circle cx="350" cy="170" r="4" fill="#e34c26"/>
  <text x="360" y="174" font-family="-apple-system, BlinkMacSystemFont, 'Segoe UI', sans-serif" font-size="11" fill="#8b949e">HTML</text>

  <text x="406" y="174" font-family="-apple-system, BlinkMacSystemFont, 'Segoe UI', sans-serif" font-size="11" fill="#484f58">+7 more</text>

  <line x1="24" y1="188" x2="456" y2="188" stroke="#21262d" stroke-width="0.5"/>
  <text x="24" y="202" font-family="-apple-system, BlinkMacSystemFont, 'Segoe UI', sans-serif" font-size="10" fill="#484f58">github-readme-stats</text>
  <text x="456" y="202" font-family="-apple-system, BlinkMacSystemFont, 'Segoe UI', sans-serif" font-size="10" fill="#484f58" text-anchor="end">Updated just now</text>
</svg>