<svg xmlns="http://www.w3.org/2000/svg" width="480" height="240" viewBox="0 0 480 240">
  <rect width="480" height="240" fill="#0d1117" rx="12" stroke="#30363d" stroke-width="0.5"/>

  <text x="24" y="32" font-family="-apple-system, BlinkMacSystemFont, 'Segoe UI', sans-serif" font-size="11" fill="#6e7681" letter-spacing="0.3">Languages</text>

  <line x1="24" y1="42" x2="456" y2="42" stroke="#21262d" stroke-width="0.5"/>

  <rect x="24"    y="56" width="432"  height="6" rx="3" fill="#21262d"/>
  <rect x="24"    y="56" width="185.8" height="6" rx="3" fill="#3572A5"/>
  <rect x="211.8" y="56" width="173.1" height="6" rx="3" fill="#f1e05a"/>
  <rect x="386.9" y="56" width="43.7"  height="6" rx="3" fill="#3178c6"/>
  <rect x="432.6" y="56" width="11.1"  height="6" rx="3" fill="#663399"/>
  <rect x="445.7" y="56" width="7.3"   height="6" rx="3" fill="#e34c26"/>
  <rect x="453.0" y="56" width="3.0"   height="6" rx="3" fill="#DA5B0B"/>

  <line x1="24" y1="76" x2="456" y2="76" stroke="#21262d" stroke-width="0.5"/>

  <circle cx="36" cy="100" r="4" fill="#3572A5"/>
  <text x="50" y="104" font-family="-apple-system, BlinkMacSystemFont, 'Segoe UI', sans-serif" font-size="13" fill="#e6edf3">Python</text>
  <text x="456" y="104" font-family="-apple-system, BlinkMacSystemFont, 'Segoe UI', sans-serif" font-size="12" fill="#6e7681" text-anchor="end">43%</text>

  <circle cx="36" cy="124" r="4" fill="#f1e05a"/>
  <text x="50" y="128" font-family="-apple-system, BlinkMacSystemFont, 'Segoe UI', sans-serif" font-size="13" fill="#e6edf3">JavaScript</text>
  <text x="456" y="128" font-family="-apple-system, BlinkMacSystemFont, 'Segoe UI', sans-serif" font-size="12" fill="#6e7681" text-anchor="end">40%</text>

  <circle cx="36" cy="148" r="4" fill="#3178c6"/>
  <text x="50" y="152" font-family="-apple-system, BlinkMacSystemFont, 'Segoe UI', sans-serif" font-size="13" fill="#e6edf3">TypeScript</text>
  <text x="456" y="152" font-family="-apple-system, BlinkMacSystemFont, 'Segoe UI', sans-serif" font-size="12" fill="#6e7681" text-anchor="end">10%</text>

  <circle cx="36" cy="172" r="4" fill="#663399"/>
  <text x="50" y="176" font-family="-apple-system, BlinkMacSystemFont, 'Segoe UI', sans-serif" font-size="13" fill="#e6edf3">CSS</text>
  <text x="456" y="176" font-family="-apple-system, BlinkMacSystemFont, 'Segoe UI', sans-serif" font-size="12" fill="#6e7681" text-anchor="end">3%</text>

  <circle cx="36" cy="196" r="4" fill="#e34c26"/>
  <text x="50" y="200" font-family="-apple-system, BlinkMacSystemFont, 'Segoe UI', sans-serif" font-size="13" fill="#e6edf3">HTML</text>
  <text x="456" y="200" font-family="-apple-system, BlinkMacSystemFont, 'Segoe UI', sans-serif" font-size="12" fill="#6e7681" text-anchor="end">2%</text>

  <circle cx="36" cy="220" r="4" fill="#DA5B0B"/>
  <text x="50" y="224" font-family="-apple-system, BlinkMacSystemFont, 'Segoe UI', sans-serif" font-size="13" fill="#e6edf3">Jupyter Notebook</text>
  <text x="456" y="224" font-family="-apple-system, BlinkMacSystemFont, 'Segoe UI', sans-serif" font-size="12" fill="#6e7681" text-anchor="end">1%</text>
</svg>