<svg xmlns="http://www.w3.org/2000/svg" width="480" height="180" viewBox="0 0 480 180">
  <rect width="480" height="180" fill="#0d1117" rx="12"/>

  <text x="30" y="20" font-family="-apple-system, BlinkMacSystemFont, 'Segoe UI', sans-serif" font-size="12" fill="#8b949e">Languages</text>

  <rect x="30" y="44" width="420" height="8" rx="4" fill="#161b22"/>
  <rect x="30" y="44" width="181.85999999999999" height="8" rx="4" fill="#3572A5"/><rect x="211.85999999999999" y="44" width="169.67999999999998" height="8" rx="4" fill="#f1e05a"/><rect x="381.53999999999996" y="44" width="42.839999999999996" height="8" rx="4" fill="#3178c6"/><rect x="424.37999999999994" y="44" width="10.920000000000002" height="8" rx="4" fill="#663399"/><rect x="435.29999999999995" y="44" width="7.140000000000001" height="8" rx="4" fill="#e34c26"/><rect x="442.43999999999994" y="44" width="5.04" height="8" rx="4" fill="#DA5B0B"/>

  <circle cx="37" cy="60" r="3.5" fill="#3572A5"/>
  <text x="48" y="64" font-family="-apple-system, BlinkMacSystemFont, 'Segoe UI', sans-serif" font-size="12" fill="#e6edf3">Python</text>
  <text x="420" y="64" font-family="-apple-system, BlinkMacSystemFont, 'Segoe UI', sans-serif" font-size="12" fill="#8b949e" text-anchor="end">(43%)</text>
  <circle cx="37" cy="82" r="3.5" fill="#f1e05a"/>
  <text x="48" y="86" font-family="-apple-system, BlinkMacSystemFont, 'Segoe UI', sans-serif" font-size="12" fill="#e6edf3">JavaScript</text>
  <text x="420" y="86" font-family="-apple-system, BlinkMacSystemFont, 'Segoe UI', sans-serif" font-size="12" fill="#8b949e" text-anchor="end">(40%)</text>
  <circle cx="37" cy="104" r="3.5" fill="#3178c6"/>
  <text x="48" y="108" font-family="-apple-system, BlinkMacSystemFont, 'Segoe UI', sans-serif" font-size="12" fill="#e6edf3">TypeScript</text>
  <text x="420" y="108" font-family="-apple-system, BlinkMacSystemFont, 'Segoe UI', sans-serif" font-size="12" fill="#8b949e" text-anchor="end">(10%)</text>
  <circle cx="37" cy="126" r="3.5" fill="#663399"/>
  <text x="48" y="130" font-family="-apple-system, BlinkMacSystemFont, 'Segoe UI', sans-serif" font-size="12" fill="#e6edf3">CSS</text>
  <text x="420" y="130" font-family="-apple-system, BlinkMacSystemFont, 'Segoe UI', sans-serif" font-size="12" fill="#8b949e" text-anchor="end">(3%)</text>
  <circle cx="37" cy="148" r="3.5" fill="#e34c26"/>
  <text x="48" y="152" font-family="-apple-system, BlinkMacSystemFont, 'Segoe UI', sans-serif" font-size="12" fill="#e6edf3">HTML</text>
  <text x="420" y="152" font-family="-apple-system, BlinkMacSystemFont, 'Segoe UI', sans-serif" font-size="12" fill="#8b949e" text-anchor="end">(2%)</text>
  <circle cx="37" cy="170" r="3.5" fill="#DA5B0B"/>
  <text x="48" y="174" font-family="-apple-system, BlinkMacSystemFont, 'Segoe UI', sans-serif" font-size="12" fill="#e6edf3">Jupyter Notebook</text>
  <text x="420" y="174" font-family="-apple-system, BlinkMacSystemFont, 'Segoe UI', sans-serif" font-size="12" fill="#8b949e" text-anchor="end">(1%)</text>

  <text x="30" y="196" font-family="-apple-system, BlinkMacSystemFont, 'Segoe UI', sans-serif" font-size="11" fill="#6e7681">+6 more</text>
</svg>