<svg xmlns="http://www.w3.org/2000/svg" width="320" height="100" viewBox="0 0 320 100">
  <rect width="320" height="100" fill="#0d1117" rx="6" stroke="#30363d" stroke-width="0.5"/>

  <g transform="translate(275, 25) scale(1)">
    <path fill="#58a6ff" fill-rule="evenodd" d="
      M17.671247,17.67125 C17.280112,18.06238 16.644268,18.06238 16.253134,17.67125 C15.862,17.28011 15.862,16.64427 16.253134,16.25313 C16.644268,15.862 17.280112,15.862 17.671247,16.25313 C18.062381,16.64427 18.062381,17.28011 17.671247,17.67125
      M10.709056,10.70906 C10.317922,11.10019 9.682078,11.10019 9.290944,10.70906 C8.899809,10.31792 8.899809,9.68208 9.290944,9.29094 C9.682078,8.89981 10.317922,8.89981 10.709056,9.29094 C11.100191,9.68208 11.100191,10.31792 10.709056,10.70906
      M3.717782,17.70033 C3.326647,18.09147 2.690803,18.09147 2.299669,17.70033 C1.908535,17.3092 1.908535,16.67335 2.299669,16.28222 C2.690803,15.89108 3.326647,15.89108 3.717782,16.28222 C4.108916,16.67335 4.108916,17.3092 3.717782,17.70033
      M3.746866,3.74687 C3.356735,4.138 2.719888,4.138 2.328753,3.74687 C1.937619,3.35573 1.937619,2.71989 2.328753,2.32875 C2.719888,1.93762 3.356735,1.93762 3.746866,2.32875 C4.138,2.71989 4.138,3.35573 3.746866,3.74687
      M16.282218,2.29967 C16.673353,1.90853 17.309197,1.90853 17.700331,2.29967 C18.091465,2.6908 18.091465,3.32665 17.700331,3.71778 C17.309197,4.10892 16.673353,4.10892 16.282218,3.71778 C15.891084,3.32665 15.891084,2.6908 16.282218,2.29967
      M15.674456,14.25534 L12.70685,11.28773 C13.201284,10.36506 13.093973,9.52763 12.70685,8.71227 L15.70354,5.71457 C16.82078,6.24611 18.193762,6.06158 19.118443,5.13589 C20.293852,3.96149 20.293852,2.05596 19.118443,0.88156 C17.944038,-0.29385 16.038512,-0.29385 14.864106,0.88156 C13.939424,1.80624 13.753886,3.17922 14.285428,4.29646 L11.287734,7.29415 C10.47237,6.90603 9.634941,6.79872 8.712266,7.29415 L5.74466,4.32655 C6.160867,3.32364 6.090663,1.83532 5.165981,0.91064 C3.990573,-0.26477 2.085047,-0.26477 0.910641,0.91064 C-0.264768,2.08605 -0.264768,3.99057 0.910641,5.16598 C1.835322,6.09066 3.323639,6.16087 4.326547,5.74466 L7.294153,8.71227 C6.798716,9.63494 6.906027,10.47237 7.294153,11.28773 L4.29646,14.28543 C3.17922,13.75389 1.806238,13.93942 0.881557,14.86411 C-0.293852,16.03851 -0.293852,17.94404 0.881557,19.11844 C2.055962,20.29385 3.961488,20.29385 5.135894,19.11844 C6.061579,18.19376 6.246114,16.82078 5.714572,15.70354 L8.712266,12.70685 C9.52763,13.09397 10.365059,13.20128 11.287734,12.70685 L14.25534,15.67446 C13.840136,16.67636 13.909337,18.16468 14.835022,19.08936 C16.009427,20.26477 17.914953,20.26477 19.089359,19.08936 C20.264768,17.91495 20.264768,16.00943 19.089359,14.83502 C18.164678,13.90934 16.676361,13.83913 15.674456,14.25534
    "/>
  </g>

  <text x="20" y="24" font-family="-apple-system, BlinkMacSystemFont, 'Segoe UI', sans-serif" font-size="10" fill="#6e7681">Commit pattern</text>
  <text x="20" y="46" font-family="-apple-system, BlinkMacSystemFont, 'Segoe UI', sans-serif" font-size="16" font-weight="500" fill="#e6edf3">Weekdays: 0% / 0%</text>
  <text x="20" y="68" font-family="-apple-system, BlinkMacSystemFont, 'Segoe UI', sans-serif" font-size="16" font-weight="500" fill="#e6edf3">Peak: Mornings</text>
  <text x="20" y="88" font-family="-apple-system, BlinkMacSystemFont, 'Segoe UI', sans-serif" font-size="11" fill="#8b949e">0 commits sampled (last 90 days)</text>
</svg>