<svg xmlns="http://www.w3.org/2000/svg" width="320" height="80" viewBox="0 0 320 80">
  <rect width="320" height="80" fill="#0d1117" rx="6" stroke="#30363d" stroke-width="0.5"/>

  <g transform="translate(271, 16) scale(1.1)">
    <path d="M3 6C3 7.65685 4.34315 9 6 9C7.65685 9 9 7.65685 9 6C9 4.34315 7.65685 3 6 3C4.34315 3 3 4.34315 3 6Z" stroke="#3fb950" stroke-width="2" fill="none"/>
    <path d="M3 18C3 19.6569 4.34315 21 6 21C7.65685 21 9 19.6569 9 18C9 16.3431 7.65685 15 6 15C4.34315 15 3 16.3431 3 18Z" stroke="#3fb950" stroke-width="2" fill="none"/>
    <path d="M15 6C15 7.65685 16.3431 9 18 9C19.6569 9 21 7.65685 21 6C21 4.34315 19.6569 3 18 3C16.3431 3 15 4.34315 15 6Z" stroke="#3fb950" stroke-width="2" fill="none"/>
    <path d="M6 15V9" stroke="#3fb950" stroke-width="2" stroke-linecap="round" stroke-linejoin="round" fill="none"/>
    <path d="M18 9V12.3242C18 16.9982 16.9424 18 12.008 18H9" stroke="#3fb950" stroke-width="2" stroke-linecap="round" fill="none"/>
  </g>

  <text x="20" y="24" font-family="-apple-system, BlinkMacSystemFont, 'Segoe UI', sans-serif" font-size="10" fill="#6e7681">Commits per year of tenure</text>
  <text x="20" y="50" font-family="-apple-system, BlinkMacSystemFont, 'Segoe UI', sans-serif" font-size="16" font-weight="500" fill="#e6edf3">382.3</text>
  <text x="20" y="68" font-family="-apple-system, BlinkMacSystemFont, 'Segoe UI', sans-serif" font-size="11" fill="#8b949e">1,147 commits over 3 years</text>
</svg>