<svg xmlns="http://www.w3.org/2000/svg" width="480" height="180" viewBox="0 0 480 180">
  <rect width="480" height="180" fill="#0d1117" rx="12"/>

  <text x="30" y="20" font-family="-apple-system, BlinkMacSystemFont, 'Segoe UI', sans-serif" font-size="12" fill="#8b949e">Languages</text>

  <rect x="30" y="44" width="420" height="8" rx="4" fill="#161b22"/>
  <rect x="30" y="44" width="178.5" height="8" rx="4" fill="#3178c6"/><rect x="208.5" y="44" width="110.88000000000001" height="8" rx="4" fill="#f1e05a"/><rect x="319.38" y="44" width="59.63999999999999" height="8" rx="4" fill="#3572A5"/><rect x="379.02" y="44" width="39.48" height="8" rx="4" fill="#e34c26"/><rect x="418.5" y="44" width="31.5" height="8" rx="4" fill="#563d7c"/>

  <circle cx="37" cy="60" r="3.5" fill="#3178c6"/>
  <text x="48" y="64" font-family="-apple-system, BlinkMacSystemFont, 'Segoe UI', sans-serif" font-size="12" fill="#e6edf3">TypeScript</text>
  <text x="420" y="64" font-family="-apple-system, BlinkMacSystemFont, 'Segoe UI', sans-serif" font-size="12" fill="#8b949e" text-anchor="end">(43%)</text>
  <circle cx="37" cy="82" r="3.5" fill="#f1e05a"/>
  <text x="48" y="86" font-family="-apple-system, BlinkMacSystemFont, 'Segoe UI', sans-serif" font-size="12" fill="#e6edf3">JavaScript</text>
  <text x="420" y="86" font-family="-apple-system, BlinkMacSystemFont, 'Segoe UI', sans-serif" font-size="12" fill="#8b949e" text-anchor="end">(26%)</text>
  <circle cx="37" cy="104" r="3.5" fill="#3572A5"/>
  <text x="48" y="108" font-family="-apple-system, BlinkMacSystemFont, 'Segoe UI', sans-serif" font-size="12" fill="#e6edf3">Python</text>
  <text x="420" y="108" font-family="-apple-system, BlinkMacSystemFont, 'Segoe UI', sans-serif" font-size="12" fill="#8b949e" text-anchor="end">(14%)</text>
  <circle cx="37" cy="126" r="3.5" fill="#e34c26"/>
  <text x="48" y="130" font-family="-apple-system, BlinkMacSystemFont, 'Segoe UI', sans-serif" font-size="12" fill="#e6edf3">HTML</text>
  <text x="420" y="130" font-family="-apple-system, BlinkMacSystemFont, 'Segoe UI', sans-serif" font-size="12" fill="#8b949e" text-anchor="end">(9%)</text>
  <circle cx="37" cy="148" r="3.5" fill="#563d7c"/>
  <text x="48" y="152" font-family="-apple-system, BlinkMacSystemFont, 'Segoe UI', sans-serif" font-size="12" fill="#e6edf3">CSS</text>
  <text x="420" y="152" font-family="-apple-system, BlinkMacSystemFont, 'Segoe UI', sans-serif" font-size="12" fill="#8b949e" text-anchor="end">(8%)</text>

  
</svg>