<svg xmlns="http://www.w3.org/2000/svg" width="480" height="180" viewBox="0 0 480 180">
  <rect width="480" height="180" fill="#0d1117" rx="12"/>

  <text x="30" y="20" font-family="-apple-system, BlinkMacSystemFont, 'Segoe UI', sans-serif" font-size="12" fill="#8b949e">DanielDeshmukh's GitHub stats</text>

  <text x="30" y="60" font-family="-apple-system, BlinkMacSystemFont, 'Segoe UI', sans-serif" font-size="18" font-weight="500" fill="#e6edf3">342</text>
  <text x="30" y="74" font-family="-apple-system, BlinkMacSystemFont, 'Segoe UI', sans-serif" font-size="10" fill="#6e7681">Stars</text>

  <text x="170" y="60" font-family="-apple-system, BlinkMacSystemFont, 'Segoe UI', sans-serif" font-size="18" font-weight="500" fill="#e6edf3">587</text>
  <text x="170" y="74" font-family="-apple-system, BlinkMacSystemFont, 'Segoe UI', sans-serif" font-size="10" fill="#6e7681">Commits (last year)</text>

  <text x="310" y="60" font-family="-apple-system, BlinkMacSystemFont, 'Segoe UI', sans-serif" font-size="18" font-weight="500" fill="#e6edf3">23</text>
  <text x="310" y="74" font-family="-apple-system, BlinkMacSystemFont, 'Segoe UI', sans-serif" font-size="10" fill="#6e7681">Pull requests</text>

  <line x1="30" y1="100" x2="450" y2="100" stroke="#30363d" stroke-width="0.5"/>

  <text x="30" y="116" font-family="-apple-system, BlinkMacSystemFont, 'Segoe UI', sans-serif" font-size="10" fill="#6e7681">Top languages</text>

  <rect x="30" y="128" width="178.5" height="8" rx="4" fill="#3178c6"/><rect x="208.5" y="128" width="110.88000000000001" height="8" rx="4" fill="#f1e05a"/><rect x="319.38" y="128" width="59.63999999999999" height="8" rx="4" fill="#3572A5"/><rect x="379.02" y="128" width="39.48" height="8" rx="4" fill="#e34c26"/><rect x="418.5" y="128" width="31.5" height="8" rx="4" fill="#563d7c"/>

  <circle cx="33.5" cy="158" r="3.5" fill="#3178c6"/><text x="42" y="162" font-family="-apple-system, BlinkMacSystemFont, 'Segoe UI', sans-serif" font-size="11" fill="#8b949e">TypeScript</text>
  <circle cx="125.5" cy="158" r="3.5" fill="#f1e05a"/><text x="134" y="162" font-family="-apple-system, BlinkMacSystemFont, 'Segoe UI', sans-serif" font-size="11" fill="#8b949e">JavaScript</text>
  <circle cx="217.5" cy="158" r="3.5" fill="#3572A5"/><text x="226" y="162" font-family="-apple-system, BlinkMacSystemFont, 'Segoe UI', sans-serif" font-size="11" fill="#8b949e">Python</text>
  <circle cx="281.5" cy="158" r="3.5" fill="#e34c26"/><text x="290" y="162" font-family="-apple-system, BlinkMacSystemFont, 'Segoe UI', sans-serif" font-size="11" fill="#8b949e">HTML</text>
  <circle cx="331.5" cy="158" r="3.5" fill="#563d7c"/><text x="340" y="162" font-family="-apple-system, BlinkMacSystemFont, 'Segoe UI', sans-serif" font-size="11" fill="#8b949e">CSS</text>
</svg>