<svg xmlns="http://www.w3.org/2000/svg" xmlns:xlink="http://www.w3.org/1999/xlink" viewBox="0 0 480 200">
  <style>
    @keyframes ring-fill {
      from { stroke-dashoffset: 125.66; }
      to { stroke-dashoffset: 119.38; }
    }
    .ring-arc {
      animation: ring-fill 0.6s ease-out forwards;
    }
  </style>
  <rect width="480" height="200" fill="#0d1117" rx="12"/>
  <rect width="480" height="2" fill="#a371f7" rx="0"/>

  <text x="24" y="30" font-family="'Segoe UI', system-ui, -apple-system, sans-serif" font-size="13" fill="#e6edf3" font-weight="600">octocat's GitHub Stats</text>

  <circle cx="440" cy="36" r="20" fill="none" stroke="rgba(48, 54, 61, 0.8)" stroke-width="1"/>
  <circle cx="440" cy="36" r="20" fill="none" stroke="#161b22" stroke-width="4"/>
  <circle cx="440" cy="36" r="20" fill="none" stroke="#a371f7" stroke-width="4" stroke-dasharray="125.66" stroke-dashoffset="125.66" stroke-linecap="round" transform="rotate(-90, 440, 36)" class="ring-arc"/>
  <text x="440" y="33" font-family="'Segoe UI', system-ui, -apple-system, sans-serif" font-size="14" fill="#e6edf3" text-anchor="middle" font-weight="700">737</text>
  <text x="440" y="47" font-family="'Segoe UI', system-ui, -apple-system, sans-serif" font-size="10" fill="#a371f7" text-anchor="middle">B</text>

  <line x1="24" y1="50" x2="420" y2="50" stroke="rgba(48, 54, 61, 0.8)" stroke-width="0.5"/>

  <g transform="translate(24, 64)"><svg width="20" height="20" viewBox="0 0 24 24" fill="none"><path d="M12 2l3.09 6.26L22 9.27l-5 4.87 1.18 6.88L12 17.77l-6.18 3.25L7 14.14 2 9.27l6.91-1.01L12 2z" fill="#e3b341" stroke="#e3b341" stroke-width="1.5" stroke-linejoin="round"/></svg></g>
  <text x="50" y="78" font-family="'Segoe UI', system-ui, -apple-system, sans-serif" font-size="12" fill="#8b949e">Total Stars</text>
  <text x="456" y="78" font-family="'Segoe UI', system-ui, -apple-system, sans-serif" font-size="14" fill="#e3b341" text-anchor="end" font-weight="700">22</text>

  <g transform="translate(24, 90)"><svg width="20" height="20" viewBox="0 0 24 24" fill="none"><circle cx="12" cy="12" r="3" fill="#58a6ff"/><line x1="12" y1="3" x2="12" y2="9" stroke="#58a6ff" stroke-width="1.5" stroke-linecap="round"/><line x1="12" y1="15" x2="12" y2="21" stroke="#58a6ff" stroke-width="1.5" stroke-linecap="round"/></svg></g>
  <text x="50" y="104" font-family="'Segoe UI', system-ui, -apple-system, sans-serif" font-size="12" fill="#8b949e">Commits (Last Year)</text>
  <text x="456" y="104" font-family="'Segoe UI', system-ui, -apple-system, sans-serif" font-size="14" fill="#58a6ff" text-anchor="end" font-weight="700">683</text>

  <g transform="translate(24, 116)"><svg width="20" height="20" viewBox="0 0 24 24" fill="none"><circle cx="12" cy="6" r="3" fill="none" stroke="#a371f7" stroke-width="1.5"/><circle cx="12" cy="18" r="3" fill="none" stroke="#a371f7" stroke-width="1.5"/><path d="M12 9v3c0 2 1 3 3 3" fill="none" stroke="#a371f7" stroke-width="1.5" stroke-linecap="round"/></svg></g>
  <text x="50" y="130" font-family="'Segoe UI', system-ui, -apple-system, sans-serif" font-size="12" fill="#8b949e">Total PRs</text>
  <text x="456" y="130" font-family="'Segoe UI', system-ui, -apple-system, sans-serif" font-size="14" fill="#a371f7" text-anchor="end" font-weight="700">28</text>

  <g transform="translate(24, 142)"><svg width="20" height="20" viewBox="0 0 24 24" fill="none"><circle cx="12" cy="12" r="9" fill="none" stroke="#8b949e" stroke-width="1.5"/><line x1="12" y1="8" x2="12" y2="13" stroke="#8b949e" stroke-width="1.5" stroke-linecap="round"/><circle cx="12" cy="16" r="1" fill="#8b949e"/></svg></g>
  <text x="50" y="156" font-family="'Segoe UI', system-ui, -apple-system, sans-serif" font-size="12" fill="#8b949e">Total Issues</text>
  <text x="456" y="156" font-family="'Segoe UI', system-ui, -apple-system, sans-serif" font-size="14" fill="#8b949e" text-anchor="end" font-weight="700">3</text>

  <rect y="198" width="480" height="2" fill="#a371f7" rx="0"/>
</svg>
