<svg xmlns="http://www.w3.org/2000/svg" viewBox="0 0 480 200">
  <defs>
    <clipPath id="avatar-clip">
      <circle cx="50" cy="44" r="22"/>
    </clipPath>
  </defs>

  <rect width="480" height="200" fill="#111315" rx="12"/>
  <rect width="480" height="2" fill="#c9a962" rx="0"/>

  <rect x="28" y="22" width="44" height="44" rx="22" fill="#1e2229" stroke="#c9a962" stroke-width="1"/>
  <image xlink:href="https://github.com/octocat.png?size=48" x="28" y="22" width="44" height="44" clip-path="url(#avatar-clip)"/>
  <text x="80" y="38" font-family="sans-serif" font-size="14" fill="#e8d5a3" font-weight="600">@octocat</text>
  <text x="80" y="54" font-family="sans-serif" font-size="10" fill="#7d8a96">Top Languages</text>

  <line x1="24" y1="68" x2="456" y2="68" stroke="#2d3748" stroke-width="0.5"/>

  <text x="24" y="88" font-family="sans-serif" font-size="11" fill="#e8d5a3">TypeScript</text>
  <text x="456" y="88" font-family="sans-serif" font-size="11" fill="#7d8a96" text-anchor="end">41.2 KB</text>
  <rect x="24" y="94" width="380" height="6" rx="2" fill="#1e2229"/>
  <rect x="24" y="94" width="380" height="6" rx="2" fill="#f1e05a"/>
  <text x="410" y="100" font-family="sans-serif" font-size="9" fill="#c9a962" font-weight="600">34%</text>

  <text x="24" y="116" font-family="sans-serif" font-size="11" fill="#e8d5a3">Python</text>
  <text x="456" y="116" font-family="sans-serif" font-size="11" fill="#7d8a96" text-anchor="end">26.8 KB</text>
  <rect x="24" y="122" width="380" height="6" rx="2" fill="#1e2229"/>
  <rect x="24" y="122" width="252" height="6" rx="2" fill="#3572a5"/>
  <text x="282" y="128" font-family="sans-serif" font-size="9" fill="#c9a962" font-weight="600">22%</text>

  <text x="24" y="144" font-family="sans-serif" font-size="11" fill="#e8d5a3">Java</text>
  <text x="456" y="144" font-family="sans-serif" font-size="11" fill="#7d8a96" text-anchor="end">18.2 KB</text>
  <rect x="24" y="150" width="380" height="6" rx="2" fill="#1e2229"/>
  <rect x="24" y="150" width="171" height="6" rx="2" fill="#b07219"/>
  <text x="201" y="156" font-family="sans-serif" font-size="9" fill="#c9a962" font-weight="600">15%</text>

  <text x="24" y="172" font-family="sans-serif" font-size="11" fill="#e8d5a3">HTML</text>
  <text x="456" y="172" font-family="sans-serif" font-size="11" fill="#7d8a96" text-anchor="end">12.1 KB</text>
  <rect x="24" y="178" width="380" height="6" rx="2" fill="#1e2229"/>
  <rect x="24" y="178" width="114" height="6" rx="2" fill="#e34c26"/>
  <text x="144" y="184" font-family="sans-serif" font-size="9" fill="#c9a962" font-weight="600">10%</text>

  <text x="24" y="196" font-family="sans-serif" font-size="10" fill="#4a5568">+ 6 more languages (19%)</text>

  <rect y="198" width="480" height="2" fill="#c9a962" rx="0"/>
</svg>
